<?xml version="1.0" standalone="no"?><!DOCTYPE svg PUBLIC "-//W3C//DTD SVG 1.1//EN" "http://www.w3.org/Graphics/SVG/1.1/DTD/svg11.dtd"><svg t="1689767875872" class="icon" viewBox="0 0 1024 1024" version="1.1" xmlns="http://www.w3.org/2000/svg" p-id="1556" xmlns:xlink="http://www.w3.org/1999/xlink" width="200" height="200"><path d="M681.4 786H149.8s-53.2-1.1-53.2-86.2h637.9c0.1 85.1-53.1 86.2-53.1 86.2z" fill="#42A5F5" p-id="1557"></path><path d="M132.1 97.3h567v602.5h-567V97.3z" fill="#90CAF9" p-id="1558"></path><path d="M601.2 230H230v52.1h371.2V230z m0 104.8H230v53.5h371.2v-53.5zM494.8 442.3H230v52.2h264.8v-52.2z m0.1 105.2H230v53.4h264.9v-53.4z" fill="#FFFFFF" p-id="1559"></path><path d="M927.1 606c0-5.1-3.9-9.2-8.8-9.2H867v-1c0.1-3.2 0.1-6.4 0.1-9.5 0-9.8-0.4-20.1-1.2-31.5-0.4-4.8-4.2-8.5-8.7-8.5H581.5c-4.6 0-8.4 3.8-8.7 8.5-0.8 9.9-1.2 21.5-1.2 33.2 0 0.9 0 3.4 0.1 6l0.1 2.8h-50.4c-4.8 0-8.8 4.1-8.8 9.3-3.2 67.5 24.4 141.6 93.4 155.1 0.5 0.1 1 0.2 1.6 0.2 0.9 0 1.9-0.2 2.7-0.5l0.6-0.2 0.4 0.7c10.8 19.9 23.3 36.6 37.2 49.5 17.5 16.3 36.4 26.1 56.5 29.3l5.5 1v67.1H642c-4.8 0-8.8 4.1-8.8 9.2 0 4.9 3.7 8.9 8.3 9.2h155.1c4.8 0 8.8-4.1 8.8-9.2s-3.9-9.2-8.8-9.2h-68.5v-59.7-7.5l5.6-1c20.1-3.2 39.1-13.1 56.5-29.3 14-13 26.6-29.8 37.4-49.9l0.4-0.8 0.8 0.3c1 0.5 2.1 0.8 3.3 0.8 0.6 0 1.1-0.1 1.7-0.2 68.9-13.4 96.5-87.5 93.3-155zM599.7 740.9c-34.3-9.7-70.6-52.8-69.5-124.7v-1h42.3l0.1 0.9c3.3 45.5 12.8 87 28.2 123.4l0.8 1.9-1.9-0.5z m309.6-124.7c1.2 72.7-35.7 115.7-70.4 124.9l-2 0.5 0.8-1.9c10.3-24.1 18-50.7 22.9-78.9l0.9-5.4c1.7-10.4 3-21.2 3.9-32l0.3-3.8 0.3-4.4h43.2l0.1 1z" fill="#FFCC80" p-id="1560"></path><path d="M719.8 616.5l19.4 39.3 43.3 6.3-31.3 30.6 7.4 43.1-38.8-20.4-38.8 20.4 7.4-43.1-31.4-30.6 43.4-6.3z" fill="#F44336" p-id="1561"></path></svg>